<svg width="24" height="24" viewBox="0 0 24 24" fill="none" xmlns="http://www.w3.org/2000/svg">
<path d="M12 22.5C18 22.5 21.5 20.5 21.5 20.5V13.5C17.5 11.5 19.5 3.5 19.5 3.5L15.5 1.5C15.5 1.5 15.5 7.5 12 7.5C8.5 7.5 8.5 1.5 8.5 1.5L4.5 3.5C4.5 3.5 6.5 11.5 2.5 13.5V20.5C2.5 20.5 6 22.5 12 22.5Z" stroke="#222836" stroke-miterlimit="10" stroke-linecap="round" stroke-linejoin="round"/>
<path d="M15.5 1.5C15.5 1.5 14.5 2.5 12 2.5C9.5 2.5 8.5 1.5 8.5 1.5" stroke="#222836" stroke-miterlimit="10" stroke-linecap="round" stroke-linejoin="round"/>
</svg>
